inDegrees=no
num_controls=7
num_derivatives=13
num_iterations=148
num_multipliers=7
num_parameters=0
num_slacks=7
num_states=26
objective=5.905365
objective_accelerations=0.700198
objective_balance=0.112200
objective_effort=0.485739
objective_height=4.525247
objective_ligament=0.081981
solver_duration=1764.790684
status=Solve_Succeeded
success=true
DataType=double
version=3
OpenSimVersion=4.4-2022-07-23-0e9fedc
endheader
time	/jointset/ground_pelvis/pelvis_tilt/value	/jointset/ground_pelvis/pelvis_tx/value	/jointset/ground_pelvis/pelvis_ty/value	/jointset/hip_l/hip_flexion_l/value	/jointset/hip_l/hip_adduction_l/value	/jointset/hip_l/hip_rotation_l/value	/jointset/back/lumbar_extension/value	/jointset/patellofemoral_l/patellar_flexion_l/value	/jointset/knee_l/knee_flexion_l/value	/jointset/knee_l/knee_adduction_l/value	/jointset/knee_l/knee_rotation_l/value	/jointset/ankle_l/ankle_angle_l/value	/jointset/subtalar_l/subtalar_angle_l/value	/jointset/ground_pelvis/pelvis_tilt/speed	/jointset/ground_pelvis/pelvis_tx/speed	/jointset/ground_pelvis/pelvis_ty/speed	/jointset/hip_l/hip_flexion_l/speed	/jointset/hip_l/hip_adduction_l/speed	/jointset/hip_l/hip_rotation_l/speed	/jointset/back/lumbar_extension/speed	/jointset/patellofemoral_l/patellar_flexion_l/speed	/jointset/knee_l/knee_flexion_l/speed	/jointset/knee_l/knee_adduction_l/speed	/jointset/knee_l/knee_rotation_l/speed	/jointset/ankle_l/ankle_angle_l/speed	/jointset/subtalar_l/subtalar_angle_l/speed	/forceset/tau_hip_flexion_l	/forceset/tau_hip_adduction_l	/forceset/tau_hip_rotation_l	/forceset/tau_knee_flexion_l	/forceset/tau_ankle_angle_l	/forceset/tau_subtalar_angle_l	/forceset/tau_lumbar_extension	lambda_cid13_p0	lambda_cid13_p1	lambda_cid13_p2	lambda_cid13_p3	lambda_cid13_p4	lambda_cid13_p5	lambda_cid14_p0	/jointset/ground_pelvis/pelvis_tilt/accel	/jointset/ground_pelvis/pelvis_tx/accel	/jointset/ground_pelvis/pelvis_ty/accel	/jointset/hip_l/hip_flexion_l/accel	/jointset/hip_l/hip_adduction_l/accel	/jointset/hip_l/hip_rotation_l/accel	/jointset/back/lumbar_extension/accel	/jointset/patellofemoral_l/patellar_flexion_l/accel	/jointset/knee_l/knee_flexion_l/accel	/jointset/knee_l/knee_adduction_l/accel	/jointset/knee_l/knee_rotation_l/accel	/jointset/ankle_l/ankle_angle_l/accel	/jointset/subtalar_l/subtalar_angle_l/accel	gamma_cid13_p0	gamma_cid13_p1	gamma_cid13_p2	gamma_cid13_p3	gamma_cid13_p4	gamma_cid13_p5	gamma_cid14_p0
0	-0.160080797537152	0.05854248984037454	0.8979958570419303	0.3774920279260975	-0.2591793053714915	-0.2722517715934462	-0.0126506700172305	0.03223623128435527	0.03223623128433527	-0.1745329195885119	0.1738415996211032	-0.04231376238535053	-0.009312069927540365	0	0	0	0	0	0	0	0	0	0	0	0	0	0.1610211346583519	-0.08272459149045926	-0.05252056013780773	-0.3117451067721025	0.3085898758961373	-0.04554112057682958	-0.10440057194648	56.75468923989042	3.574187392326493	6.18616354031312	-0.2975162108027327	-587.2610759711649	-72.07973849417442	-39.05226275206125	-4.941079269623381	-2.433951494727526	-1.214308704871669	13.64818529548134	-1.271240080752998	3.080129006567014	-6.101218691174075	9.226735543203736	9.226735543207548	0.09245451565582231	0.1011748566641361	0.5851923835805954	-1.166305804234402	-2.626025176382712e-08	9.155166005330579e-08	7.311684691728484e-08	8.624961989922565e-10	6.801869683116149e-08	1.136457289862494e-08	-1.080075371045436e-08
0.01	-0.1603198674534992	0.05842213093923683	0.8979364490455158	0.3781583005362921	-0.2592427477262321	-0.2720981170117101	-0.01295678259387379	0.0326873676970396	0.03268736769701567	-0.1745305759876587	0.1738436732623933	-0.04228691039401631	-0.009370807239751484	-0.04755142623657637	-0.02397730246772884	-0.01183916464814902	0.13264411315293	-0.01262331899203181	0.03060804447814883	-0.06078771139775824	0.08984986129088685	0.08984986129089677	0.0004746888869732345	0.0004058040302781959	0.005345184011760471	-0.01168811893006085	0.1533404197339783	-0.09095939612675963	-0.05092442408696906	-0.3021898349492019	0.2939807612733768	-0.03148663044970628	-0.09828185800951146	52.58476171359552	-1.554838457006489	6.724345041538328	1.523981788574133	-588.2249278408775	-81.64297195238551	-39.0652481064844	-4.622798212987886	-2.365447786840897	-1.162341545972591	12.98095671249811	-1.24812494306905	3.032702867380385	-6.002326773732784	8.807500396297359	8.80750039629646	0.02589352553013706	0.0089374891737109	0.5053978208470924	-1.161186034012258	-5.078029938186301e-08	1.156995693454275e-07	1.148993789827321e-07	1.67851339099715e-08	-5.349294663494318e-08	2.176960111001033e-08	-1.839742963057454e-08
0.02	-0.1610265764146805	0.05806483338061189	0.8977599251623813	0.3801327007553708	-0.2594304726978258	-0.2716420698453796	-0.01385772816645712	0.03402568051743738	0.03402568051743238	-0.1745233020072314	0.173849535806626	-0.04220736328039021	-0.009544649960587114	-0.09352780896563608	-0.04738773149744694	-0.02342317734398705	0.2616255217978067	-0.02485652336971368	0.06047851691396193	-0.1189665991817273	0.177435281552429	0.1774352815524302	0.0009860757864213645	0.0007577805791189331	0.0105390244584577	-0.02302108172494021	0.1456597048086562	-0.09919420076300779	-0.04932828803612662	-0.2926345631266573	0.2793716466505541	-0.01743214032254688	-0.092163144073312	48.49561840601293	-6.697702005024925	7.264385929098474	3.244478198301076	-587.9269373472282	-91.10123649124363	-39.10360930408807	-4.626070568119887	-2.320576807125566	-1.163278314409522	12.9156443938707	-1.193217157883544	2.932614598099852	-5.579453968416156	8.773847337334901	8.773847337334972	0.0997941181497688	0.09040936037672942	0.5549236705676033	-1.09527457719871	-7.530034699989892e-08	1.398474786375493e-07	1.566819110481793e-07	3.270777162095075e-08	-1.750045901010478e-07	3.217462932139573e-08	-2.599410555069472e-08
0.03	-0.1621858968293254	0.05747662367206376	0.8974685885199999	0.3833789829091337	-0.2597382207351134	-0.2708912627532489	-0.01532727396774359	0.03622839170108144	0.03622839170103047	-0.1745104044289045	0.1738588226590694	-0.04207626939967671	-0.009829623343655476	-0.1381055860781419	-0.07012143331552109	-0.03482005903272223	0.3869962641335455	-0.03660401427526534	0.089533269534521	-0.1745344831983237	0.262695040574201	0.2626950405742078	0.001606242022527601	0.001103299258957011	0.01568468754204414	-0.0338848877728315	0.1393376874532107	-0.0933143771683449	-0.04844841936732248	-0.2870970052288966	0.2745638992432562	-0.0197823903910676	-0.08693455124482768	46.91072197469965	-5.518430795351713	7.212241657884872	3.347457112256075	-587.7122310913068	-87.72846573668039	-39.16609552269415	-4.339037678573796	-2.229843729570831	-1.124314773101621	12.25257929249866	-1.152178733924722	2.869439033508073	-5.484243936688851	8.340258224648744	8.340258224649238	0.0450838151052395	0.007159591363658856	0.4951240713661896	-1.068666864768981	-9.431827785564739e-08	1.495416715750648e-07	1.806021266745939e-07	5.035955540542177e-08	-2.851940799023309e-07	3.736279369740961e-08	-3.034465034151339e-08
0.04	-0.1637840762942334	0.05666506157324918	0.8970639987253332	0.3878599305141172	-0.2601607764168666	-0.2698544014470313	-0.01734025627285958	0.03927134408291794	0.03927134408291594	-0.1744909140004987	0.1738716719922886	-0.04189357159930451	-0.01022058143643912	-0.1812996190209798	-0.09205820955073656	-0.04607380780100667	0.5085586120321831	-0.04781805226217368	0.1176893597340483	-0.2276538999511876	0.3454835211980052	0.345483521198015	0.002304645809189334	0.001470276721842248	0.0208598083901204	-0.04421802366811592	0.133015670098196	-0.08743455357369563	-0.04756855069803669	-0.2815594473310151	0.2697561518360077	-0.02213264045959702	-0.08170595841601182	45.39930800962205	-4.350295223718582	7.159898820174154	3.352572985628513	-586.367355465767	-84.25521590010582	-39.2512322397131	-4.349321734186096	-2.161191690554116	-1.134651730319394	12.15396550645059	-1.086526574154974	2.752882113893484	-5.089760515669599	8.279591657741427	8.279591657740989	0.1154416282606892	0.09470111698620379	0.5608152234652272	-0.9891405466775224	-1.132227630049569e-07	1.589378497423822e-07	2.041540471166985e-07	6.804699168625344e-08	-3.95150123236298e-07	4.244339387063233e-08	-3.462826459358359e-08
0.05	-0.165807644818054	0.05563794414262944	0.8965473139148167	0.3935385734216157	-0.2606926822732764	-0.2685402894625935	-0.01987174449353156	0.04313052142037372	0.0431305214203859	-0.1744638697834254	0.1738883257240004	-0.04165891750456358	-0.01071210046780398	-0.2231671878893766	-0.113245822681468	-0.05725796201220771	0.6265524331260283	-0.05847154971968639	0.145004336543707	-0.2782439784467245	0.4259575339612119	0.4259575339612204	0.003106027871599194	0.00184804788439385	0.02606393730888016	-0.05399899894570732	0.1253153823035418	-0.08490436007142975	-0.04635709870913191	-0.2745558640325582	0.2617177734382367	-0.02003496270284317	-0.07558552305768135	43.02282576528773	-4.868961154335254	7.269714721278565	3.971691408796886	-584.9696388244062	-84.03303048523047	-39.35715095500731	-4.068448495817977	-2.079614289132555	-1.109598341613018	11.5294432948724	-1.041049469010932	2.701470833423334	-4.983666655729106	7.872151195982009	7.87215119598185	0.0628025056921145	0.007423988776334267	0.4991443755430272	-0.9596056021977358	-1.263698356206849e-07	1.795281617334923e-07	2.178279529631727e-07	8.098969590178082e-08	-4.608025648566172e-07	5.219159134419889e-08	-3.617710002417554e-08
